<?xml version="1.0" encoding="UTF-8" standalone="no"?>
<!DOCTYPE svg PUBLIC "-//W3C//DTD SVG 1.1//EN" "http://www.w3.org/Graphics/SVG/1.1/DTD/svg11.dtd">
<svg width="100%" height="100%" viewBox="0 0 640 320" version="1.1" xmlns="http://www.w3.org/2000/svg" xmlns:xlink="http://www.w3.org/1999/xlink" xml:space="preserve" xmlns:serif="http://www.serif.com/" style="fill-rule:evenodd;clip-rule:evenodd;stroke-linejoin:round;stroke-miterlimit:2;">
    <g>
        <g transform="matrix(0.734954,0,0,0.734954,134.776,-77.7255)">
            <path d="M504.042,473.075C504.042,478.936 499.29,483.687 493.431,483.687L10.611,483.687C4.751,483.687 0,478.936 0,473.075L0,187.629C0,181.769 4.751,177.017 10.611,177.017L493.43,177.017C499.289,177.017 504.041,181.768 504.041,187.629L504.041,473.075L504.042,473.075Z" style="fill:rgb(239,223,187);fill-rule:nonzero;"/>
        </g>
        <g transform="matrix(0.734954,0,0,0.734954,134.776,-77.7255)">
            <path d="M21.943,473.075L21.943,187.629C21.943,181.769 26.694,177.017 32.554,177.017L10.611,177.017C4.751,177.017 0,181.768 0,187.629L0,473.075C0,478.936 4.751,483.687 10.611,483.687L32.554,483.687C26.694,483.687 21.943,478.936 21.943,473.075Z" style="fill-opacity:0.1;fill-rule:nonzero;"/>
        </g>
        <g transform="matrix(1,0,0,1,64,-96)">
            <g transform="matrix(0.734954,0,0,0.734954,70.7763,18.2745)">
                <path d="M491.839,409.335C487.443,409.335 483.88,412.898 483.88,417.294C483.88,421.69 487.443,425.253 491.839,425.253L504.042,425.253L504.042,409.336L491.839,409.336L491.839,409.335Z" style="fill:rgb(214,193,150);fill-rule:nonzero;"/>
            </g>
            <g transform="matrix(0.734954,0,0,0.734954,70.7763,18.2745)">
                <path d="M489.075,436.924C484.679,436.924 481.117,440.487 481.117,444.882C481.117,449.278 484.679,452.841 489.075,452.841L504.041,452.841L504.041,436.924L489.075,436.924Z" style="fill:rgb(214,193,150);fill-rule:nonzero;"/>
            </g>
        </g>
    </g>
    <g transform="matrix(1,0,0,1,0.468755,8.52651e-14)">
        <g transform="matrix(0.734954,0,0,0.734954,22.8312,25.3951)">
            <path d="M120.352,88.49C120.352,121.724 93.411,148.666 60.176,148.666C26.941,148.666 0,121.724 0,88.49C0,55.255 26.942,28.312 60.177,28.312C76.226,28.312 90.809,34.595 101.598,44.835C113.149,55.802 120.352,71.305 120.352,88.49Z" style="fill:rgb(120,181,145);fill-rule:nonzero;"/>
        </g>
        <g transform="matrix(0.734954,0,0,0.734954,22.8312,25.3951)">
            <path d="M60.177,127.444C38.698,127.444 21.223,109.969 21.223,88.49C21.223,67.01 38.699,49.535 60.177,49.535C81.656,49.535 99.13,67.01 99.13,88.49C99.129,109.969 81.655,127.444 60.177,127.444Z" style="fill:rgb(140,87,44);fill-rule:nonzero;"/>
        </g>
        <g transform="matrix(0.734954,0,0,0.734954,22.8312,25.3951)">
            <path d="M42.977,88.49C42.977,70.785 54.852,55.812 71.053,51.092C67.598,50.086 63.951,49.535 60.177,49.535C38.698,49.535 21.223,67.01 21.223,88.49C21.223,109.969 38.699,127.444 60.177,127.444C63.951,127.444 67.599,126.893 71.053,125.887C54.852,121.166 42.977,106.194 42.977,88.49Z" style="fill-opacity:0.1;fill-rule:nonzero;"/>
        </g>
        <g transform="matrix(1,0,0,1,64,-96)">
            <g transform="matrix(0.734954,0,0,0.734954,-41.1688,121.395)">
                <path d="M56.065,72.778C64.217,76.153 66.954,78.892 70.33,87.044C73.707,78.892 76.445,76.153 84.597,72.778C76.444,69.4 73.707,66.662 70.33,58.511C66.954,66.663 64.217,69.401 56.065,72.778Z" style="fill:white;fill-rule:nonzero;"/>
            </g>
            <g transform="matrix(0.734954,0,0,0.734954,-41.1688,121.395)">
                <circle cx="84.261" cy="90.039" r="6.29" style="fill:white;"/>
            </g>
        </g>
    </g>
    <g>
        <g>
            <g transform="matrix(0.734954,0,0,0.734954,134.776,-77.7255)">
                <path d="M98.852,377.364L60.943,377.364C49.544,377.364 40.27,386.639 40.27,398.039L40.27,435.946C40.27,447.346 49.545,456.62 60.943,456.62L98.85,456.62C110.25,456.62 119.524,447.345 119.524,435.946L119.524,398.039C119.526,386.638 110.251,377.364 98.852,377.364Z" style="fill:rgb(49,102,56);fill-rule:nonzero;"/>
            </g>
            <g transform="matrix(0.734954,0,0,0.734954,134.776,-77.7255)">
                <path d="M60.943,446.09C55.35,446.09 50.8,441.539 50.8,435.946L50.8,398.039C50.8,392.446 55.349,387.894 60.943,387.894L98.85,387.894C104.443,387.894 108.994,392.445 108.994,398.039L108.994,435.946C108.994,441.539 104.443,446.09 98.85,446.09L60.943,446.09Z" style="fill:white;fill-rule:nonzero;"/>
            </g>
            <g transform="matrix(0.734954,0,0,0.734954,134.776,-77.7255)">
                <circle cx="79.893" cy="416.987" r="16.905" style="fill:rgb(255,129,80);"/>
            </g>
        </g>
        <g>
            <g transform="matrix(0.734954,0,0,0.734954,134.776,-77.7255)">
                <path d="M184.913,377.364L147.005,377.364C135.605,377.364 126.331,386.639 126.331,398.039L126.331,435.946C126.331,447.346 135.606,456.62 147.005,456.62L184.913,456.62C196.313,456.62 205.587,447.345 205.587,435.946L205.587,398.039C205.588,386.638 196.313,377.364 184.913,377.364Z" style="fill:rgb(49,102,56);fill-rule:nonzero;"/>
            </g>
            <g transform="matrix(0.734954,0,0,0.734954,134.776,-77.7255)">
                <path d="M147.006,446.09C141.413,446.09 136.862,441.539 136.862,435.946L136.862,398.039C136.862,392.446 141.413,387.894 147.006,387.894L184.914,387.894C190.506,387.894 195.058,392.445 195.058,398.039L195.058,435.946C195.058,441.539 190.507,446.09 184.914,446.09L147.006,446.09Z" style="fill:white;fill-rule:nonzero;"/>
            </g>
            <g transform="matrix(0.734954,0,0,0.734954,134.776,-77.7255)">
                <circle cx="165.961" cy="416.987" r="16.905" style="fill:rgb(255,129,80);"/>
            </g>
        </g>
        <g>
            <g transform="matrix(0.734954,0,0,0.734954,134.776,-77.7255)">
                <path d="M270.975,377.364L233.067,377.364C221.667,377.364 212.393,386.639 212.393,398.039L212.393,435.946C212.393,447.346 221.668,456.62 233.067,456.62L270.975,456.62C282.374,456.62 291.648,447.345 291.648,435.946L291.648,398.039C291.649,386.638 282.374,377.364 270.975,377.364Z" style="fill:rgb(49,102,56);fill-rule:nonzero;"/>
            </g>
            <g transform="matrix(0.734954,0,0,0.734954,134.776,-77.7255)">
                <path d="M233.068,446.09C227.474,446.09 222.923,441.539 222.923,435.946L222.923,398.039C222.923,392.446 227.474,387.894 233.068,387.894L270.976,387.894C276.569,387.894 281.119,392.445 281.119,398.039L281.119,435.946C281.119,441.539 276.57,446.09 270.976,446.09L233.068,446.09Z" style="fill:white;fill-rule:nonzero;"/>
            </g>
            <g transform="matrix(0.734954,0,0,0.734954,134.776,-77.7255)">
                <circle cx="252.019" cy="416.987" r="16.905" style="fill:rgb(255,129,80);"/>
            </g>
        </g>
        <g>
            <g transform="matrix(0.734954,0,0,0.734954,134.776,-77.7255)">
                <path d="M357.036,377.364L319.128,377.364C307.729,377.364 298.455,386.639 298.455,398.039L298.455,435.946C298.455,447.346 307.73,456.62 319.128,456.62L357.036,456.62C368.436,456.62 377.71,447.345 377.71,435.946L377.71,398.039C377.711,386.638 368.436,377.364 357.036,377.364Z" style="fill:rgb(49,102,56);fill-rule:nonzero;"/>
            </g>
            <g transform="matrix(0.734954,0,0,0.734954,134.776,-77.7255)">
                <path d="M319.129,446.09C313.537,446.09 308.985,441.539 308.985,435.946L308.985,398.039C308.985,392.446 313.536,387.894 319.129,387.894L357.037,387.894C362.63,387.894 367.181,392.445 367.181,398.039L367.181,435.946C367.181,441.539 362.63,446.09 357.037,446.09L319.129,446.09Z" style="fill:white;fill-rule:nonzero;"/>
            </g>
            <g transform="matrix(0.734954,0,0,0.734954,134.776,-77.7255)">
                <circle cx="338.087" cy="416.987" r="16.905" style="fill:rgb(255,129,80);"/>
            </g>
        </g>
        <g>
            <g transform="matrix(0.734954,0,0,0.734954,134.776,-77.7255)">
                <path d="M443.098,377.364L405.19,377.364C393.79,377.364 384.516,386.639 384.516,398.039L384.516,435.946C384.516,447.346 393.791,456.62 405.19,456.62L443.097,456.62C454.497,456.62 463.771,447.345 463.771,435.946L463.771,398.039C463.773,386.638 454.498,377.364 443.098,377.364Z" style="fill:rgb(49,102,56);fill-rule:nonzero;"/>
            </g>
            <g transform="matrix(0.734954,0,0,0.734954,134.776,-77.7255)">
                <path d="M405.191,446.09C399.597,446.09 395.046,441.539 395.046,435.946L395.046,398.039C395.046,392.446 399.597,387.894 405.191,387.894L443.098,387.894C448.691,387.894 453.242,392.445 453.242,398.039L453.242,435.946C453.242,441.539 448.691,446.09 443.098,446.09L405.191,446.09Z" style="fill:white;fill-rule:nonzero;"/>
            </g>
            <g transform="matrix(0.734954,0,0,0.734954,134.776,-77.7255)">
                <circle cx="424.145" cy="416.987" r="16.905" style="fill:rgb(255,129,80);"/>
            </g>
        </g>
    </g>
    <g>
        <g transform="matrix(0.734954,0,0,0.734954,134.776,-77.7255)">
            <path d="M126.466,319.987C126.466,338.002 111.86,352.608 93.846,352.608L78.35,352.608C60.336,352.608 45.73,338.002 45.73,319.987L45.73,245.775C45.73,227.759 60.336,213.154 78.35,213.154L93.847,213.154C111.861,213.154 126.467,227.76 126.467,245.775C126.466,245.776 126.466,319.987 126.466,319.987Z" style="fill:rgb(255,78,0);fill-rule:nonzero;"/>
        </g>
        <g transform="matrix(1,0,0,1,64,-96)">
            <g transform="matrix(0.734954,0,0,0.734954,70.7763,18.2745)">
                <path d="M45.731,256.712L45.731,273.125C59.554,255.012 87.439,230.026 111.461,218.327C107.535,215.804 103.038,214.1 98.203,213.455C79.23,224.535 59.546,241.467 45.731,256.712Z" style="fill:white;fill-rule:nonzero;"/>
            </g>
            <g transform="matrix(0.734954,0,0,0.734954,70.7763,18.2745)">
                <path d="M45.731,292.532L45.731,311.617C60.2,285.583 93.739,257.604 126.421,244.051C126.229,240.35 125.412,236.816 124.086,233.542C94.603,245.374 64.145,268.621 45.731,292.532Z" style="fill:white;fill-rule:nonzero;"/>
            </g>
            <g transform="matrix(0.734954,0,0,0.734954,70.7763,18.2745)">
                <path d="M48.062,332.096C49.55,335.819 51.703,339.204 54.377,342.103C67.185,319.543 97.175,294.132 126.466,280.573L126.466,268.967C95.567,282.072 63.946,307.651 48.062,332.096Z" style="fill:white;fill-rule:nonzero;"/>
            </g>
            <g transform="matrix(0.734954,0,0,0.734954,70.7763,18.2745)">
                <path d="M126.466,302.082C103.952,311.809 79.013,334.612 68.856,351.201C71.861,352.114 75.047,352.61 78.35,352.61L80.657,352.61C90.288,339.277 108.984,322.566 126.466,313.787L126.466,302.082Z" style="fill:white;fill-rule:nonzero;"/>
            </g>
        </g>
        <g transform="matrix(0.734954,0,0,0.734954,134.776,-77.7255)">
            <path d="M104.935,341.952L89.439,341.952C71.424,341.952 56.818,327.346 56.818,309.331L56.818,223.721C56.818,222.836 56.864,221.997 56.932,221.182C50.072,227.162 45.73,235.959 45.73,245.775L45.73,319.987C45.73,338.002 60.336,352.608 78.35,352.608L93.847,352.608C105.407,352.608 115.556,346.587 121.351,337.517C116.527,340.332 110.922,341.952 104.935,341.952Z" style="fill-opacity:0.1;fill-rule:nonzero;"/>
        </g>
    </g>
    <g>
        <g transform="matrix(0.734954,0,0,0.734954,134.776,-77.7255)">
            <path d="M183.009,223.562L205.175,223.562C210.325,218.874 215.628,211.804 220,203.286C229.231,185.296 230.796,167.677 223.496,163.931C216.332,160.256 203.3,171.308 194.09,188.72C184.883,171.309 171.852,160.257 164.687,163.931C157.388,167.677 158.953,185.296 168.184,203.286C172.555,211.804 177.859,218.875 183.009,223.562Z" style="fill:rgb(255,145,80);fill-rule:nonzero;"/>
        </g>
        <g transform="matrix(1,0,0,1,64,-96)">
            <g opacity="0.1">
                <g transform="matrix(0.734954,0,0,0.734954,70.7763,18.2745)">
                    <path d="M185.883,203.286C178.766,189.417 176.21,175.776 178.756,168.535C173.405,163.973 168.3,162.079 164.687,163.932C157.388,167.678 158.953,185.297 168.184,203.287C172.555,211.805 177.859,218.875 183.009,223.563L200.71,223.563C195.558,218.875 190.255,211.804 185.883,203.286Z" style="fill-rule:nonzero;"/>
                </g>
            </g>
        </g>
        <g transform="matrix(0.734954,0,0,0.734954,134.776,-77.7255)">
            <path d="M234.46,319.987C234.46,338.002 219.855,352.608 201.84,352.608L186.343,352.608C168.329,352.608 153.723,338.002 153.723,319.987L153.723,245.775C153.723,227.759 168.329,213.154 186.343,213.154L201.84,213.154C219.854,213.154 234.46,227.76 234.46,245.775L234.46,319.987Z" style="fill:rgb(242,180,124);fill-rule:nonzero;"/>
        </g>
        <g transform="matrix(1,0,0,1,64,-96)">
            <g transform="matrix(0.734954,0,0,0.734954,70.7763,18.2745)">
                <path d="M153.724,246.354L153.724,260.176C165.718,268.875 179.9,273.231 194.093,273.231C208.28,273.231 222.466,268.873 234.461,260.175L234.461,246.354C211.969,268.026 176.216,268.026 153.724,246.354Z" style="fill:white;fill-rule:nonzero;"/>
            </g>
            <g transform="matrix(0.734954,0,0,0.734954,70.7763,18.2745)">
                <path d="M153.724,277.047L153.724,290.868C165.718,299.567 179.9,303.923 194.093,303.923C208.28,303.923 222.466,299.565 234.461,290.867L234.461,277.046C211.969,298.72 176.216,298.72 153.724,277.047Z" style="fill:white;fill-rule:nonzero;"/>
            </g>
            <g transform="matrix(0.734954,0,0,0.734954,70.7763,18.2745)">
                <path d="M234.421,321.598C234.446,321.064 234.461,320.528 234.461,319.988L234.461,307.74C223.551,318.258 209.265,324.051 194.093,324.051C178.919,324.051 164.635,318.258 153.724,307.74L153.724,319.987C153.724,320.527 153.739,321.063 153.765,321.597C165.43,330.074 179.409,334.661 194.093,334.661C208.776,334.663 222.754,330.076 234.421,321.598Z" style="fill:white;fill-rule:nonzero;"/>
            </g>
        </g>
        <g transform="matrix(0.734954,0,0,0.734954,134.776,-77.7255)">
            <path d="M202.052,213.16C201.982,213.16 201.911,213.155 201.841,213.155L186.344,213.155C186.274,213.155 186.205,213.16 186.135,213.16L186.135,242.663C186.135,247.059 189.698,250.622 194.093,250.622C198.489,250.622 202.052,247.059 202.052,242.663L202.052,213.16Z" style="fill:rgb(219,155,103);fill-rule:nonzero;"/>
        </g>
        <g transform="matrix(0.734954,0,0,0.734954,134.776,-77.7255)">
            <path d="M213.172,341.952L197.675,341.952C179.661,341.952 165.055,327.346 165.055,309.331L165.055,221.072C158.12,227.055 153.724,235.899 153.724,245.777L153.724,319.989C153.724,338.004 168.33,352.61 186.344,352.61L201.841,352.61C213.309,352.61 223.387,346.688 229.203,337.739C224.466,340.416 219.001,341.952 213.172,341.952Z" style="fill-opacity:0.1;fill-rule:nonzero;"/>
        </g>
    </g>
    <g>
        <g transform="matrix(0.734954,0,0,0.734954,134.776,-77.7255)">
            <path d="M343.284,320.306C343.284,338.322 328.678,352.926 310.664,352.926L295.168,352.926C277.153,352.926 262.547,338.321 262.547,320.306L262.547,246.094C262.547,228.078 277.152,213.473 295.168,213.473L310.664,213.473C328.678,213.473 343.284,228.079 343.284,246.094L343.284,320.306Z" style="fill:rgb(255,226,102);fill-rule:nonzero;"/>
        </g>
        <g transform="matrix(1,0,0,1,64,-96)">
            <g transform="matrix(0.734954,0,0,0.734954,70.7763,18.2745)">
                <path d="M310.665,339.661L295.169,339.661C284.495,339.661 275.813,330.978 275.813,320.305L275.813,246.094C275.813,235.421 284.496,226.737 295.169,226.737L310.665,226.737C321.337,226.737 330.02,235.421 330.02,246.094L330.02,320.306C330.021,330.979 321.336,339.661 310.665,339.661ZM295.169,242.656C293.272,242.656 291.73,244.199 291.73,246.096L291.73,320.308C291.73,322.203 293.272,323.746 295.169,323.746L310.665,323.746C312.56,323.746 314.104,322.204 314.104,320.308L314.104,246.095C314.104,244.199 312.561,242.655 310.665,242.655L295.169,242.655L295.169,242.656Z" style="fill:rgb(229,201,85);fill-rule:nonzero;"/>
            </g>
            <g transform="matrix(0.734954,0,0,0.734954,70.7763,18.2745)">
                <path d="M302.916,321.4C299.985,321.4 297.61,319.025 297.61,316.094L297.61,250.303C297.61,247.373 299.985,244.997 302.916,244.997C305.847,244.997 308.221,247.372 308.221,250.303L308.221,316.094C308.222,319.024 305.847,321.4 302.916,321.4Z" style="fill:rgb(229,201,85);fill-rule:nonzero;"/>
            </g>
        </g>
        <g transform="matrix(0.734954,0,0,0.734954,134.776,-77.7255)">
            <path d="M345.362,299.506C345.362,302.437 342.987,304.812 340.057,304.812L265.777,304.812C262.846,304.812 260.471,302.437 260.471,299.506L260.471,272.978C260.471,270.047 262.846,267.672 265.777,267.672L340.057,267.672C342.988,267.672 345.362,270.047 345.362,272.978L345.362,299.506Z" style="fill:rgb(49,102,56);fill-rule:nonzero;"/>
        </g>
    </g>
    <g>
        <g transform="matrix(0.734954,0,0,0.734954,134.776,-77.7255)">
            <path d="M456.235,320.306C456.235,338.322 441.628,352.926 423.614,352.926L408.118,352.926C390.104,352.926 375.497,338.321 375.497,320.306L375.497,246.094C375.497,228.078 390.103,213.473 408.118,213.473L423.614,213.473C441.628,213.473 456.235,228.079 456.235,246.094L456.235,320.306Z" style="fill:rgb(168,68,63);fill-rule:nonzero;"/>
        </g>
        <g transform="matrix(0.734954,0,0,0.734954,134.776,-77.7255)">
            <path d="M397.242,320.306L397.242,246.094C397.242,229.132 410.189,215.198 426.737,213.626C425.71,213.528 424.666,213.473 423.614,213.473L408.118,213.473C390.104,213.473 375.497,228.079 375.497,246.094L375.497,320.306C375.497,338.322 390.103,352.926 408.118,352.926L423.614,352.926C424.667,352.926 425.71,352.872 426.737,352.773C410.189,351.2 397.242,337.267 397.242,320.306Z" style="fill-opacity:0.1;fill-rule:nonzero;"/>
        </g>
        <g transform="matrix(0.734954,0,0,0.734954,134.776,-77.7255)">
            <path d="M458.311,299.506C458.311,302.437 455.936,304.812 453.005,304.812L378.725,304.812C375.794,304.812 373.419,302.437 373.419,299.506L373.419,272.978C373.419,270.047 375.794,267.672 378.725,267.672L453.005,267.672C455.936,267.672 458.311,270.047 458.311,272.978L458.311,299.506Z" style="fill:rgb(49,102,56);fill-rule:nonzero;"/>
        </g>
    </g>
    <g transform="matrix(1,0,0,1,-0.988134,2.84217e-14)">
        <g transform="matrix(4.45049e-17,0.734954,-0.734954,4.45049e-17,636.874,-86.0551)">
            <path d="M443.037,58.248L165.538,58.248C161.142,58.248 157.58,61.811 157.58,66.206C157.58,70.602 161.142,74.165 165.538,74.165L443.037,74.165L443.037,58.248Z" style="fill:rgb(140,98,57);fill-rule:nonzero;"/>
        </g>
        <g transform="matrix(4.45049e-17,0.734954,-0.734954,4.45049e-17,636.874,-86.0551)">
            <path d="M504.042,74.165L433.476,74.165C429.08,74.165 425.518,70.602 425.518,66.206C425.518,61.81 429.08,58.248 433.476,58.248L504.042,58.248C508.438,58.248 512,61.811 512,66.206C512,70.602 508.438,74.165 504.042,74.165Z" style="fill:rgb(66,33,11);fill-rule:nonzero;"/>
        </g>
        <g transform="matrix(4.45049e-17,0.734954,-0.734954,4.45049e-17,636.874,-86.0551)">
            <path d="M443.037,97.817L165.538,97.817C161.142,97.817 157.58,101.38 157.58,105.776C157.58,110.171 161.142,113.735 165.538,113.735L443.037,113.735L443.037,97.817Z" style="fill:rgb(140,98,57);fill-rule:nonzero;"/>
        </g>
        <g transform="matrix(4.45049e-17,0.734954,-0.734954,4.45049e-17,636.874,-86.0551)">
            <path d="M504.042,113.735L433.476,113.735C429.08,113.735 425.518,110.172 425.518,105.776C425.518,101.38 429.08,97.817 433.476,97.817L504.042,97.817C508.438,97.817 512,101.38 512,105.776C512,110.172 508.438,113.735 504.042,113.735Z" style="fill:rgb(66,33,11);fill-rule:nonzero;"/>
        </g>
    </g>
</svg>
