<svg xmlns="http://www.w3.org/2000/svg" xmlns:xlink="http://www.w3.org/1999/xlink" width="122" height="38" viewBox="0 0 122 38">
  <defs>
    <style>
      .cls-1 {
        fill: #626262;
      }

      .cls-2 {
        fill: #f39800;
      }

      .cls-2, .cls-3 {
        fill-rule: evenodd;
      }

      .cls-3 {
        fill: #fff100;
      }

      .cls-4 {
        fill: url(#linear-gradient);
      }

      .cls-5 {
        font-size: 25px;
        text-anchor: middle;
        font-family: FontName;
      }
    </style>
    <linearGradient id="linear-gradient" x1="17" y1="19" x2="19.469" y2="19" gradientUnits="userSpaceOnUse">
      <stop offset="0" stop-opacity="0.502"/>
      <stop offset="1" stop-opacity="0"/>
    </linearGradient>
  </defs>
  <rect id="底层" class="cls-1" x="8" y="1" width="18" height="36" rx="1.08" ry="1.08"/>
  <path id="遮盖下" class="cls-2" d="M17,19H35V31H18.44A1.44,1.44,0,0,1,17,29.56V19Zm9,0h9v6H27.44A1.44,1.44,0,0,1,26,23.56V19Z"/>
  <path id="遮盖上" class="cls-3" d="M18.44,7H35V19H17V8.44A1.44,1.44,0,0,1,18.44,7Zm9,6H35v6H26V14.44A1.44,1.44,0,0,1,27.44,13Z"/>
  <path id="阴影" class="cls-4" d="M17.2,7h2.269a0,0,0,0,1,0,0V31a0,0,0,0,1,0,0H17.2a0.2,0.2,0,0,1-.2-0.2V7.2A0.2,0.2,0,0,1,17.2,7Z"/>
  <text id="HIKC.NET" class="cls-5" transform="translate(78.838 23.943) scale(0.67)"><tspan x="0">HIKC.NET</tspan></text>
</svg>
