<?xml version="1.0" encoding="UTF-8" standalone="no"?>
<!DOCTYPE svg PUBLIC "-//W3C//DTD SVG 1.1//EN" "http://www.w3.org/Graphics/SVG/1.1/DTD/svg11.dtd">
<svg width="128" height="30" viewBox="0 0 128 30" version="1.1" xmlns="http://www.w3.org/2000/svg" xmlns:xlink="http://www.w3.org/1999/xlink" xml:space="preserve" xmlns:serif="http://www.serif.com/" style="fill-rule:evenodd;clip-rule:evenodd;stroke-linejoin:round;stroke-miterlimit:2;">
    <g id="mix">
        <g id="blog" transform="matrix(1,0,0,1,17.7659,2.30374)">
            <path d="M103.11,3.023C103.166,3.023 103.216,3.033 103.267,3.054C103.292,3.236 103.307,3.914 103.307,5.093C103.307,5.902 103.297,6.337 103.282,6.388C103.232,6.413 103.186,6.423 103.135,6.423C103.08,6.423 103.029,6.413 102.984,6.398C102.938,6.297 102.918,5.76 102.918,4.799C102.918,4.374 102.923,3.792 102.943,3.049C102.974,3.033 103.029,3.023 103.11,3.023L101.369,3.023C101.101,3.023 100.844,3.072 100.607,3.161C100.609,3.347 100.615,3.768 100.626,4.43C100.641,5.123 100.651,5.634 100.651,5.963C100.651,6.221 100.646,6.362 100.636,6.383C100.565,6.403 100.515,6.413 100.474,6.413C100.368,6.413 100.312,6.408 100.307,6.398C100.262,6.297 100.242,5.659 100.242,4.485C100.242,3.96 100.245,3.575 100.254,3.331C99.621,3.711 99.196,4.404 99.196,5.196C99.196,6.396 100.17,7.369 101.369,7.369L107.371,7.369C107.444,7.369 107.516,7.366 107.587,7.359C107.556,7.354 107.529,7.347 107.507,7.339C107.487,7.309 107.481,7.268 107.481,7.207C107.481,7.147 107.481,7.101 107.492,7.071C107.603,7.066 107.724,7.056 107.851,7.04C108.033,6.995 108.129,6.939 108.129,6.878C108.139,6.853 108.144,6.798 108.144,6.717C108.144,6.646 108.139,6.357 108.134,5.841C108.124,5.497 108.124,5.229 108.124,5.037L108.124,4.612C108.175,4.597 108.22,4.587 108.266,4.587C108.336,4.587 108.397,4.597 108.438,4.607C108.478,5.017 108.498,5.74 108.498,6.772C108.498,6.919 108.493,7.015 108.488,7.056C108.488,7.057 108.488,7.059 108.487,7.06C109.12,6.68 109.544,5.987 109.544,5.196C109.544,3.997 108.57,3.023 107.371,3.023L103.11,3.023ZM105.367,4.42C105.225,4.318 105.053,4.268 104.851,4.268C104.517,4.278 104.243,4.394 104.036,4.622C103.854,4.84 103.763,5.093 103.763,5.381C103.763,5.669 103.859,5.922 104.056,6.135C104.249,6.337 104.496,6.433 104.805,6.433C104.947,6.433 105.068,6.403 105.164,6.337C105.154,6.236 105.129,6.15 105.078,6.074C104.987,6.104 104.896,6.12 104.805,6.12C104.613,6.12 104.456,6.049 104.324,5.907C104.193,5.755 104.132,5.578 104.132,5.386C104.132,5.189 104.188,5.017 104.304,4.865C104.451,4.683 104.633,4.592 104.856,4.587C104.982,4.587 105.109,4.622 105.24,4.688C105.26,4.668 105.281,4.632 105.306,4.582C105.341,4.531 105.362,4.48 105.367,4.42ZM107.977,4.582C107.785,4.379 107.552,4.278 107.289,4.278C106.986,4.278 106.738,4.384 106.545,4.592C106.358,4.814 106.267,5.072 106.267,5.371C106.267,5.69 106.353,5.948 106.535,6.15C106.717,6.342 106.965,6.433 107.289,6.433C107.542,6.423 107.78,6.327 108.003,6.135C107.942,5.998 107.896,5.912 107.876,5.877C107.664,6.008 107.461,6.074 107.269,6.079C107.077,6.079 106.92,6.018 106.803,5.892C106.692,5.765 106.642,5.598 106.642,5.386C106.642,5.184 106.702,5.012 106.829,4.86C106.955,4.718 107.112,4.642 107.304,4.642C107.487,4.642 107.669,4.703 107.851,4.819C107.927,4.738 107.967,4.657 107.977,4.582ZM102.463,5.376C102.432,4.683 102.124,4.318 101.527,4.288C101.243,4.293 101.005,4.374 100.813,4.526C100.813,4.607 100.844,4.698 100.909,4.789C101.117,4.693 101.304,4.642 101.471,4.632C101.866,4.647 102.078,4.885 102.103,5.351C102.093,5.821 101.876,6.059 101.446,6.064C101.329,6.064 101.162,6.013 100.94,5.912C100.904,5.953 100.884,5.988 100.874,6.023C100.859,6.054 100.844,6.109 100.828,6.19C101.031,6.342 101.243,6.413 101.461,6.413C102.108,6.403 102.442,6.059 102.463,5.376ZM105.964,5.396C105.964,5.062 105.842,4.794 105.604,4.582C105.513,4.617 105.443,4.683 105.387,4.779C105.539,4.961 105.615,5.163 105.615,5.381C105.615,5.502 105.579,5.614 105.508,5.72C105.427,5.831 105.341,5.917 105.25,5.978C105.286,6.039 105.311,6.079 105.321,6.099C105.331,6.125 105.357,6.165 105.397,6.226C105.549,6.175 105.685,6.069 105.802,5.907C105.908,5.75 105.964,5.578 105.964,5.396Z" style="fill:rgb(230,88,62);"/>
        </g>
        <g id="jkc.icu">
            <path d="M49.014,12.665L45.379,12.665C44.95,12.665 44.645,12.583 44.462,12.417C44.279,12.252 44.188,12.036 44.188,11.77C44.188,11.509 44.279,11.296 44.462,11.13C44.645,10.965 44.95,10.883 45.379,10.883L50.797,10.883L50.797,19.152C50.797,19.778 50.665,20.325 50.401,20.791C50.137,21.258 49.733,21.659 49.188,21.996C48.643,22.332 48.029,22.5 47.345,22.5L45.327,22.5C44.898,22.5 44.593,22.417 44.41,22.252C44.227,22.087 44.136,21.874 44.136,21.613C44.136,21.346 44.227,21.13 44.41,20.965C44.593,20.8 44.898,20.717 45.327,20.717L47.293,20.717C47.837,20.717 48.261,20.57 48.562,20.274C48.864,19.978 49.014,19.604 49.014,19.152L49.014,12.665Z" style="fill:rgb(119,246,84);"/>
            <path d="M72.101,11.204C72.316,11.001 72.536,10.9 72.762,10.9C73.017,10.9 73.227,10.991 73.393,11.174C73.558,11.357 73.64,11.659 73.64,12.083L73.64,13.23C73.64,13.659 73.558,13.964 73.393,14.143C73.227,14.323 73.011,14.413 72.745,14.413C72.501,14.413 72.295,14.343 72.127,14.204C72.006,14.1 71.91,13.887 71.84,13.565C71.771,13.243 71.603,13.004 71.336,12.848C70.866,12.57 70.266,12.43 69.536,12.43C68.695,12.43 68.022,12.677 67.514,13.17C67.007,13.662 66.753,14.286 66.753,15.039C66.753,15.735 66.997,16.284 67.484,16.687C67.971,17.09 68.779,17.291 69.91,17.291C70.652,17.291 71.258,17.216 71.727,17.065C72.006,16.972 72.269,16.814 72.519,16.591C72.768,16.368 72.994,16.257 73.197,16.257C73.44,16.257 73.65,16.346 73.827,16.526C74.004,16.706 74.093,16.917 74.093,17.161C74.093,17.555 73.823,17.929 73.284,18.283C72.484,18.81 71.313,19.074 69.771,19.074C68.385,19.074 67.307,18.787 66.536,18.213C65.493,17.442 64.971,16.387 64.971,15.048C64.971,13.778 65.394,12.728 66.24,11.896C67.087,11.064 68.191,10.648 69.553,10.648C70.046,10.648 70.504,10.694 70.927,10.787C71.35,10.88 71.742,11.019 72.101,11.204Z" style="fill:rgb(119,246,84);"/>
            <path d="M104.162,11.204C104.377,11.001 104.597,10.9 104.823,10.9C105.078,10.9 105.288,10.991 105.453,11.174C105.619,11.357 105.701,11.659 105.701,12.083L105.701,13.23C105.701,13.659 105.619,13.964 105.453,14.143C105.288,14.323 105.072,14.413 104.806,14.413C104.562,14.413 104.356,14.343 104.188,14.204C104.066,14.1 103.971,13.887 103.901,13.565C103.832,13.243 103.664,13.004 103.397,12.848C102.927,12.57 102.327,12.43 101.597,12.43C100.756,12.43 100.082,12.677 99.575,13.17C99.068,13.662 98.814,14.286 98.814,15.039C98.814,15.735 99.058,16.284 99.545,16.687C100.032,17.09 100.84,17.291 101.971,17.291C102.713,17.291 103.319,17.216 103.788,17.065C104.066,16.972 104.33,16.814 104.579,16.591C104.829,16.368 105.055,16.257 105.258,16.257C105.501,16.257 105.711,16.346 105.888,16.526C106.065,16.706 106.153,16.917 106.153,17.161C106.153,17.555 105.884,17.929 105.345,18.283C104.545,18.81 103.374,19.074 101.832,19.074C100.446,19.074 99.368,18.787 98.597,18.213C97.553,17.442 97.032,16.387 97.032,15.048C97.032,13.778 97.455,12.728 98.301,11.896C99.148,11.064 100.252,10.648 101.614,10.648C102.107,10.648 102.565,10.694 102.988,10.787C103.411,10.88 103.803,11.019 104.162,11.204Z" style="fill:rgb(119,246,84);"/>
            <path d="M81.371,17.883C81.371,18.219 81.252,18.5 81.014,18.726C80.777,18.952 80.449,19.065 80.032,19.065C79.614,19.065 79.287,18.952 79.049,18.726C78.811,18.5 78.693,18.219 78.693,17.883C78.693,17.546 78.811,17.265 79.049,17.039C79.287,16.813 79.614,16.7 80.032,16.7C80.449,16.7 80.777,16.813 81.014,17.039C81.252,17.265 81.371,17.546 81.371,17.883Z" style="fill:rgb(119,246,84);"/>
            <path d="M115.858,10.883L115.858,16.996C116.235,16.996 116.513,17.08 116.693,17.248C116.872,17.416 116.962,17.63 116.962,17.891C116.962,18.152 116.871,18.365 116.688,18.53C116.506,18.696 116.2,18.778 115.771,18.778L114.075,18.778L114.075,18.37C113.565,18.601 113.078,18.775 112.614,18.891C112.15,19.007 111.71,19.065 111.293,19.065C110.707,19.065 110.2,18.942 109.771,18.696C109.342,18.449 109.003,18.109 108.753,17.674C108.574,17.361 108.484,16.97 108.484,16.5L108.484,12.665L108.179,12.665C107.75,12.665 107.445,12.583 107.262,12.417C107.079,12.252 106.988,12.036 106.988,11.77C106.988,11.509 107.079,11.296 107.262,11.13C107.445,10.965 107.75,10.883 108.179,10.883L110.266,10.883L110.266,16.187C110.266,16.564 110.358,16.841 110.54,17.017C110.723,17.194 111.003,17.283 111.379,17.283C111.739,17.283 112.126,17.212 112.54,17.07C112.955,16.928 113.466,16.671 114.075,16.3L114.075,12.665L113.432,12.665C113.003,12.665 112.697,12.583 112.514,12.417C112.332,12.252 112.24,12.036 112.24,11.77C112.24,11.509 112.332,11.296 112.514,11.13C112.697,10.965 113.003,10.883 113.432,10.883L115.858,10.883Z" style="fill:rgb(119,246,84);"/>
            <path d="M91.579,10.883L91.579,16.996L93.719,16.996C94.148,16.996 94.453,17.078 94.636,17.243C94.819,17.409 94.91,17.625 94.91,17.891C94.91,18.152 94.819,18.365 94.636,18.53C94.453,18.696 94.148,18.778 93.719,18.778L87.658,18.778C87.229,18.778 86.923,18.696 86.74,18.53C86.558,18.365 86.466,18.149 86.466,17.883C86.466,17.622 86.558,17.409 86.74,17.243C86.923,17.078 87.229,16.996 87.658,16.996L89.797,16.996L89.797,12.665L88.362,12.665C87.939,12.665 87.635,12.583 87.449,12.417C87.264,12.252 87.171,12.036 87.171,11.77C87.171,11.509 87.262,11.296 87.445,11.13C87.627,10.965 87.933,10.883 88.362,10.883L91.579,10.883Z" style="fill:rgb(119,246,84);"/>
            <path d="M55.388,9.387L48.558,9.387C48.037,9.387 47.614,8.964 47.614,8.443C47.614,7.923 48.037,7.5 48.558,7.5L91.336,7.5L91.336,9.387L57.171,9.387L57.171,13.509L58.562,12.387C58.417,12.138 58.345,11.935 58.345,11.778C58.345,11.512 58.435,11.296 58.614,11.13C58.794,10.965 59.098,10.883 59.527,10.883L61.562,10.883C61.991,10.883 62.297,10.965 62.479,11.13C62.662,11.296 62.753,11.512 62.753,11.778C62.753,12.039 62.662,12.252 62.479,12.417C62.297,12.583 61.991,12.665 61.562,12.665L61.066,12.665L58.901,14.422L61.814,16.996L62.336,16.996C62.765,16.996 63.071,17.078 63.253,17.243C63.436,17.409 63.527,17.625 63.527,17.891C63.527,18.152 63.436,18.365 63.253,18.53C63.071,18.696 62.765,18.778 62.336,18.778L60.284,18.778C59.855,18.778 59.549,18.696 59.366,18.53C59.184,18.365 59.093,18.149 59.093,17.883C59.093,17.657 59.191,17.433 59.388,17.213L57.501,15.543L57.171,15.813L57.171,18.778L55.084,18.778C54.655,18.778 54.349,18.696 54.166,18.53C53.984,18.365 53.893,18.149 53.893,17.883C53.893,17.622 53.985,17.409 54.171,17.243C54.356,17.078 54.661,16.996 55.084,16.996L55.388,16.996L55.388,9.387Z" style="fill:rgb(119,246,84);"/>
        </g>
        <g id="main">
            <g transform="matrix(1.2,0,0,1.2,-2.99482,15.1953)">
                <circle cx="21.246" cy="6.087" r="6.25" style="fill:rgb(92,193,84);"/>
            </g>
            <g transform="matrix(1.2,0,0,1.2,-2.99482,0.195253)">
                <circle cx="21.246" cy="6.087" r="6.25" style="fill:rgb(246,189,79);"/>
            </g>
            <g transform="matrix(1.48905,0,0,1.13263,-7.33575,-3.97884)">
                <path d="M15,10.135C15,6.48 12.743,3.513 9.963,3.513C7.183,3.513 4.926,6.48 4.926,10.135L4.926,23.378C4.926,27.033 7.183,30 9.963,30C12.743,30 15,27.033 15,23.378L15,10.135Z" style="fill:rgb(239,110,93);"/>
            </g>
        </g>
    </g>
</svg>
