<svg xmlns="http://www.w3.org/2000/svg" xmlns:xlink="http://www.w3.org/1999/xlink" viewBox="0 0 636 300"><defs><clipPath id="a"><rect x="0.681" y="33.87" width="634.271" height="213.992" fill="none"/></clipPath><radialGradient id="b" cx="-9516.443" cy="-5676.528" r="21.267" gradientTransform="matrix(1, 0, 0, -1, 10070.697, -5532)" gradientUnits="userSpaceOnUse"><stop offset="0" stop-color="#594539"/><stop offset="0.197" stop-color="#5c4739" stop-opacity="0.949"/><stop offset="0.417" stop-color="#664b3a" stop-opacity="0.798"/><stop offset="0.649" stop-color="#77533b" stop-opacity="0.547"/><stop offset="0.886" stop-color="#8e5e3c" stop-opacity="0.199"/><stop offset="1" stop-color="#9b643d" stop-opacity="0"/></radialGradient><radialGradient id="c" cx="-9612.798" cy="-6264.426" r="14.702" gradientTransform="matrix(0.972, 0.012, 0.011, -0.876, 9971.225, -5237.035)" gradientUnits="userSpaceOnUse"><stop offset="0" stop-color="#33312d"/><stop offset="0.319" stop-color="#4c3d31" stop-opacity="0.76"/><stop offset="0.897" stop-color="#8e5e3b" stop-opacity="0.127"/><stop offset="1" stop-color="#9b643d" stop-opacity="0"/></radialGradient><radialGradient id="d" cx="561.364" cy="217.289" fx="573.3518101609268" fy="242.48499386320026" r="32.631" gradientUnits="userSpaceOnUse"><stop offset="0.303" stop-color="#7359ae"/><stop offset="0.767" stop-color="#8867c8"/></radialGradient><radialGradient id="e" cx="593.242" cy="262.227" fx="593.2417895333656" fy="274.466580882117" r="38.398" xlink:href="#d"/><radialGradient id="f" cx="-359.874" cy="554.709" fx="-352.619203676245" fy="561.497415576971" r="19.823" gradientTransform="matrix(0.967, -0.071, 0.07, 0.983, 533.704, -379.082)" gradientUnits="userSpaceOnUse"><stop offset="0.259" stop-color="#45779e"/><stop offset="0.84" stop-color="#5c8eb6"/></radialGradient><radialGradient id="g" cx="-7079.572" cy="65.184" fx="-7079.571783067961" fy="65.18386312162875" r="23.761" gradientTransform="matrix(-0.967, -0.071, -0.07, 0.983, -6550.761, -379.082)" xlink:href="#f"/><radialGradient id="h" cx="297.619" cy="241.869" fx="297.6191247314564" fy="241.86929188898284" r="51.214" gradientTransform="matrix(1, 0, 0, 1, 0, 0)" xlink:href="#f"/><radialGradient id="i" cx="262.579" cy="128.234" r="12.971" gradientUnits="userSpaceOnUse"><stop offset="0.173" stop-color="#724937"/><stop offset="0.703" stop-color="#9b643d"/></radialGradient><radialGradient id="j" cx="422.702" cy="212.183" r="13.134" gradientTransform="translate(-147.077 -81.17) rotate(0.723) scale(0.972 0.876)" xlink:href="#i"/><linearGradient id="k" x1="1763.543" y1="-5703.779" x2="1763.543" y2="-5591.404" gradientTransform="matrix(-0.988, -0.114, 0.124, -0.998, 2515.979, -5178.901)" gradientUnits="userSpaceOnUse"><stop offset="0" stop-color="#bb946c"/><stop offset="1" stop-color="#dfbc97"/></linearGradient><radialGradient id="l" cx="88.983" cy="219.815" r="33.248" gradientTransform="translate(-6.15 -3.819) rotate(0.077)" gradientUnits="userSpaceOnUse"><stop offset="0.222" stop-color="#d87401"/><stop offset="0.83" stop-color="#ff8c00"/></radialGradient><radialGradient id="m" cx="64.899" cy="223.195" r="44.706" gradientTransform="matrix(1, 0, 0, 1, 0, 0)" xlink:href="#l"/><radialGradient id="n" cx="92.945" cy="142.276" r="22.696" gradientUnits="userSpaceOnUse"><stop offset="0.114" stop-color="#9a6541"/><stop offset="0.999" stop-color="#f9ddbf"/></radialGradient><radialGradient id="o" cx="668.196" cy="1380.486" r="9.062" gradientTransform="matrix(-0.985, -0.171, -0.169, 0.977, 987.824, -1095.933)" gradientUnits="userSpaceOnUse"><stop offset="0" stop-color="#9a6541" stop-opacity="0.847"/><stop offset="1" stop-color="#f9ddbf" stop-opacity="0"/></radialGradient><radialGradient id="p" cx="-3529.49" cy="-4728.216" r="21.097" gradientTransform="matrix(0.985, 0.171, 0.198, -1.141, 4500.327, -4699.64)" gradientUnits="userSpaceOnUse"><stop offset="0" stop-color="#5c2c07" stop-opacity="0.847"/><stop offset="1" stop-color="#be906b" stop-opacity="0"/></radialGradient><radialGradient id="q" cx="39.076" cy="240.97" r="39.996" gradientTransform="matrix(1, 0, 0, 1, 0, 0)" xlink:href="#l"/><radialGradient id="r" cx="-6919.673" cy="137.01" r="12.418" gradientTransform="matrix(-1, 0, 0, 1, -6543.913, 0)" gradientUnits="userSpaceOnUse"><stop offset="0.143" stop-color="#9b643d"/><stop offset="0.248" stop-color="#9d663f" stop-opacity="0.953"/><stop offset="0.404" stop-color="#a16c45" stop-opacity="0.824"/><stop offset="0.591" stop-color="#a9754e" stop-opacity="0.613"/><stop offset="0.8" stop-color="#b3815a" stop-opacity="0.322"/><stop offset="1" stop-color="#bf8f68" stop-opacity="0"/></radialGradient><radialGradient id="s" cx="6580.505" cy="-363.826" r="7.944" gradientTransform="matrix(0.983, 0.129, -0.181, 1.049, -6148.465, -339.104)" gradientUnits="userSpaceOnUse"><stop offset="0" stop-color="#9b643d"/><stop offset="0.27" stop-color="#a46e47" stop-opacity="0.756"/><stop offset="0.868" stop-color="#ba8962" stop-opacity="0.141"/><stop offset="1" stop-color="#bf8f68" stop-opacity="0"/></radialGradient><radialGradient id="t" cx="366.979" cy="224.734" r="22.409" gradientUnits="userSpaceOnUse"><stop offset="0.302" stop-color="#eaa306"/><stop offset="0.84" stop-color="#ffb900"/></radialGradient><radialGradient id="u" cx="397.816" cy="239.462" fx="409.09424583472713" r="12.814" xlink:href="#t"/></defs><title>swimlane-welcome-to-the-community</title><g style="isolation:isolate"><g clip-path="url(#a)"><path d="M583.66,169.816c1.9-2.064,3.172-3.625,3.172-3.625l-1.727-2.446h0a12.029,12.029,0,0,1-3.308-7.912c-.432-6.33-.144-26.9-.144-26.9s-38.123-16.4-34.958-1.007c3.021,14.386,2.877,26.9.719,32.512a3.915,3.915,0,0,1-3.453,2.446l.185.112c-2.429-.115-4.643-.247-6.515-.4,0,0-4.172,7.912-1.726,11.077,2.437,3.011,29.153,7.734,35.464,5.918l8.7,5.3Z" fill="#9b643d"/><path d="M492.747,194.387S517.635,247.616,508,289.479c3.884,4.172,15.681,7.625,32.369,6.186,16.112-1.438,32.081-2.445,39.705-2.877,15.537-.863,22.3,2.014,22.3,2.014s-.288-8.344,3.165-27.765c2.545-13.743,18.147-57.315,21.715-67.193a12.025,12.025,0,0,0,.73-4.347c-.372-17.091-9.352-31.2-25.179-31.608l-17.695-.144c-5.466,5.323-14.242,8.776-24.024,8.488s-18.271-4.028-23.594-9.639a89.505,89.505,0,0,0-24.744,2.3C505.406,166.478,493.178,176.117,492.747,194.387Z" fill="#8867c8"/><path d="M543.961,162.882s6.33,5.035,20.141,5.035,21-4.172,21-4.172a12.025,12.025,0,0,1-3.308-7.912c-.432-6.33-.144-26.9-.144-26.9s-38.123-16.4-34.958-1.007c3.021,14.386,2.877,26.9.719,32.512A3.915,3.915,0,0,1,543.961,162.882Z" fill="url(#b)"/><path d="M552.737,118.717a2.8,2.8,0,0,1,1.294-1.583,3.7,3.7,0,0,1,2.158-.144,3.529,3.529,0,0,1,2.59,2.877.31.31,0,0,1-.288.288c-.144,0-.144,0-.288-.144h0a5.49,5.49,0,0,0-2.445-1.726,2.563,2.563,0,0,0-2.59.575h0c-.144.144-.287,0-.431,0Z" fill="#5d4033"/><path d="M536.337,118.717a2.793,2.793,0,0,1,1.294-1.583,3.7,3.7,0,0,1,2.158-.144,3.529,3.529,0,0,1,2.59,2.877.31.31,0,0,1-.288.288c-.144,0-.144,0-.288-.144h0a5.49,5.49,0,0,0-2.445-1.726,2.563,2.563,0,0,0-2.59.575h0c-.144.144-.288,0-.431,0Z" fill="#5d4033"/><path d="M555.47,128.787l29.348.144.143-17.12a8.57,8.57,0,0,0-8.343-8.488h-21a11.421,11.421,0,0,0-11.509,11.365v2.59A11.329,11.329,0,0,0,555.47,128.787Z" fill="#cbc2cc"/><circle cx="578.632" cy="128.211" r="7.337" fill="#9b643d"/><path d="M552.737,157.415H555.9a22.808,22.808,0,0,0,22.873-22.73l.144-15.249a9.3,9.3,0,0,0-9.207-9.351l-33.951-.144-.144,30.067A17.224,17.224,0,0,0,552.737,157.415Z" fill="#9b643d"/><path d="M544.537,138.282l16.4.144a12.128,12.128,0,0,0,12.084-11.941l.144-15.105a3.167,3.167,0,0,0-3.021-3.165l-26.9-.144a6.6,6.6,0,0,0-6.618,6.617l-.287,15.25A8.228,8.228,0,0,0,544.537,138.282Z" fill="#9b643d"/><path d="M544.393,111.524a70.219,70.219,0,0,1,17.263-2.3,77.62,77.62,0,0,1,17.7,1.3l-.144-2.878c-.144-6.617-4.316-12.659-12.228-11.509-12.228,1.727-9.639-1.87-14.962-2.157-5.035-.288-6.042,4.6-8.2,4.747-5.035.144-4.172-6.474-11.8-4.747C525.691,95.411,521.95,117.134,544.393,111.524Z" fill="#cbc2cc"/><ellipse cx="560.374" cy="127.544" rx="2.877" ry="1.582" transform="translate(429.723 687.201) rotate(-89.682)" fill="#3a312e"/><path d="M535.761,155.689l17.407.144v-15.25a2.516,2.516,0,0,0-1.007-2.014l-3.452-2.3a1.6,1.6,0,0,1-.432-2.3l3.021-4.6a7.132,7.132,0,0,0,1.151-3.74v-16.4H534.9Z" fill="url(#c)"/><path d="M580.358,107.352s-12.8-2.3-11.941,6.761c.576,5.179,2.015,6.042,5.323,6.33,2.446.144,6.906.863,6.906.863Z" fill="#cbc2cc"/><ellipse cx="544.694" cy="127.6" rx="2.877" ry="1.582" transform="matrix(0.006, -1, 1, 0.006, 414.073, 671.578)" fill="#3a312e"/><g opacity="0.7"><path d="M560.937,141.447a6.274,6.274,0,0,1-4.316,4.747,6.522,6.522,0,0,1-3.309.144,5.378,5.378,0,0,1-2.877-1.726.678.678,0,0,1,.144-.864.527.527,0,0,1,.431-.144h0a13.769,13.769,0,0,0,2.446,0l2.158-.431a12.114,12.114,0,0,0,4.172-2.3h0a.677.677,0,0,1,.863.144C560.937,141.159,560.937,141.3,560.937,141.447Z" fill="#594539"/></g><path d="M623.8,182.447a66.536,66.536,0,0,1-133.071,0c0-36.685,35.965-139.545,72.649-139.545S623.8,145.762,623.8,182.447Z" fill="none"/><path d="M512.743,164.9c-7.337,1.582-19.565,11.221-20,29.491,0,0,24.888,53.229,15.249,95.092,3.884,4.172,15.681,7.625,32.369,6.186,16.112-1.438,32.081-2.445,39.705-2.877,15.537-.863,22.3,2.014,22.3,2.014s-.288-8.344,3.165-27.765c2.545-13.743,18.147-57.315,21.715-67.193a12.025,12.025,0,0,0,.73-4.347c-.372-17.091-9.352-31.2-25.179-31.608l-17.695-.144c-5.466,5.323-14.242,8.776-24.024,8.488s-18.271-4.028-23.594-9.639" fill="url(#d)"/><path d="M530.294,245.488a47.063,47.063,0,0,1-7.768,2.014c-4.172.576-9.926-1.151-9.926-1.151s-4.172-.144-7.769,0c-3.884.144-7.912,2.014-10.358,2.158-3.6.288-3.6-2.733-.575-3.165,3.452-.575,9.351-5.61,14.386-6.042,5.323-.432,21.867-.719,21.867-.719Z" fill="none"/><path d="M524.684,253.37l64.449,5.179c12.516,1.007,22.367-7.049,26.039-19.853,5.485-14.509,10-30.861,11.782-37.6a3.992,3.992,0,0,0-2.094-4.6l-45.941-22.68-1.582,54.955L524.4,236.4Z" fill="url(#e)"/><rect x="409.433" y="74.806" width="234.791" height="172.978" fill="none"/><path d="M206.5,217.943c8.842,2.924,13.753-2.417,15.527-6.8,5.791-14.285,18.091-33.989,25.043-44.45,3.408-4.072,6.852-16.654-3.151-22.008-5.038-2.808-9.952-3.4-18.771,6.351-8.406,9.292-19.555,28.539-26.368,53.4C198.139,209.455,200.5,215.958,206.5,217.943Z" fill="url(#f)"/><path d="M317.344,219.36c-8.842,2.923-13.753-2.418-15.528-6.8-5.79-14.285-18.09-33.989-25.042-44.45-3.408-4.072-7.61-17.677,2.393-23.031,5.038-2.807,8.333-4.333,19.529,7.374,8.66,9.055,19.555,28.538,26.368,53.4C325.706,210.871,323.348,217.374,317.344,219.36Z" fill="url(#g)"/><path d="M293.47,263c-2.251.455-66.1.322-66.7-.05-5.675-60.461-3.268-102.619-3.268-102.619,0-15.679,16.667-20.5,32.969-21.219h8.2c17.388,0,32.627,5.188,32.627,20.867C297.3,159.981,299.119,210.145,293.47,263Z" fill="url(#h)"/><path d="M545.867,248.5H454.7l-17.943-51.948a3.06,3.06,0,0,1,2.894-4.052h83.927a4.048,4.048,0,0,1,3.763,2.749Z" fill="#b2b2b2"/><circle cx="243.425" cy="97.316" r="5.814" fill="#594539"/><circle cx="256.32" cy="73.612" r="6.627" fill="#594539"/><circle cx="247.679" cy="78.199" r="6.627" fill="#594539"/><circle cx="243.065" cy="87.347" r="6.627" fill="#594539"/><circle cx="280.596" cy="97.316" r="5.814" fill="#594539"/><circle cx="267.484" cy="73.872" r="6.627" fill="#594539"/><circle cx="276.851" cy="78.454" r="6.627" fill="#594539"/><circle cx="280.476" cy="88.547" r="6.627" fill="#594539"/><path d="M260.64,73.132h2.8a19.1,19.1,0,0,1,19.1,19.1v12.784a8.218,8.218,0,0,1-8.218,8.218H249.756a8.218,8.218,0,0,1-8.218-8.218V92.234A19.1,19.1,0,0,1,260.64,73.132Z" fill="#594539"/><path d="M278.261,140.468c-1.364,3.135-8.84,10.656-12.924,14.626a3.771,3.771,0,0,1-5.3-.038C256.064,151.084,248.735,143,247.25,140c4.583-1.333,15.993-1.918,15.993-1.918S272.36,138.371,278.261,140.468Z" fill="#9b643d"/><path d="M272.663,112.916H252.487V139.5c0,2.881.1,4.055.1,4.055l19.334-.167a9.289,9.289,0,0,0,.754-4.235Z" fill="url(#i)"/><path d="M238.186,109.743a6.52,6.52,0,0,0,6.484,6.556c.245,0,3.4-.011,3.641-.036,3.263-.341,2.9-3.091,2.915-6.448.019-3.325.463-6.083-2.752-6.5-.266-.035-3.456-.054-3.731-.055A6.521,6.521,0,0,0,238.186,109.743Z" fill="#9b643d"/><rect x="244.67" y="80.5" width="34.723" height="48.921" rx="14.853" fill="#9b643d"/><ellipse cx="266.769" cy="107.826" rx="2.58" ry="1.398" transform="matrix(0.006, -1, 1, 0.006, 157.465, 373.992)" fill="#3a312e"/><path d="M247.7,123.237l12.661-.208.333-5.577a2.138,2.138,0,0,0-.961-1.785l-3.072-2.025a1.461,1.461,0,0,1-.424-2.01l2.674-4.151a6.171,6.171,0,0,0,.982-3.318l.057-14.64-13.3.2Z" fill="url(#j)"/><ellipse cx="251.652" cy="107.748" rx="2.58" ry="1.398" transform="translate(142.508 358.798) rotate(-89.682)" fill="#3a312e"/><path d="M286.062,109.743a6.52,6.52,0,0,1-6.484,6.556c-.245,0-3.4-.011-3.641-.036-3.263-.341-2.9-3.091-2.915-6.448-.019-3.325-.463-6.083,2.752-6.5.266-.035,3.456-.054,3.731-.055A6.521,6.521,0,0,1,286.062,109.743Z" fill="#9b643d"/><path d="M266.864,121.015a4.694,4.694,0,0,1-1.216,2.936,5.944,5.944,0,0,1-6.146,1.709,4.459,4.459,0,0,1-2.571-1.935.713.713,0,0,1,.628-1.067l.089,0a18.331,18.331,0,0,0,2.316-.084,13.466,13.466,0,0,0,1.909-.345,10.42,10.42,0,0,0,1.8-.653,19.626,19.626,0,0,0,2.049-1.152l.056-.035a.713.713,0,0,1,1.085.624Z" fill="#855035"/><path d="M273.689,76.949H250.374L243.1,87.989l1.448,15.277,1.944-11.16a7.622,7.622,0,0,1,7.463-6.076h16.161a7.621,7.621,0,0,1,7.463,6.077l1.943,11.16,1.449-15.278Z" fill="#594539"/><circle cx="270.433" cy="83.282" r="6.627" fill="#594539"/><path d="M280.73,229.468l1.083,6.2-7.423,5.094a31.063,31.063,0,0,1-5.782,3.131,22.9,22.9,0,0,1-4.711,1.651q-1.2.185-4.586.987a11.557,11.557,0,0,1-3.838.3,3.411,3.411,0,0,1-2.049-2.243q-.975-.117-2.5-.233a4.608,4.608,0,0,1-1.668-.626q-.963-1.454.719-2.166l12.684-6.189-2.674-.575q-2.986-.566-4.613-1.045-1.41-.543-1.253-1.372.21-.923,1.724-1.116a49.647,49.647,0,0,1,7.811-.961q2.324-.11,6.14-.487Z" fill="#9b643d"/><path d="M321.785,199.22c7.726,8.4,1.224,15.728-1.079,18.586-19.632,17.342-41.039,19.527-41.039,19.527l-3.853-7.687c16.723-9.933,20.607-21.1,28.391-29.6C306.4,197.65,314.366,191.152,321.785,199.22Z" fill="#5c8eb6"/><path d="M269.561,243.5H186.729L175.9,193.215a2.8,2.8,0,0,1,2.649-3.715h76.3a3.648,3.648,0,0,1,3.449,2.459Z" fill="#cbc2cc"/><rect x="186.656" y="243.081" width="97.282" height="6.13" rx="3.065" fill="#b6b0b7"/><path d="M134.259,194.465q-1.6-5.632,1.153-14.472,2.905-8.9.828-16.476-2.016-7.5-9.416-14.476-6.421-6.186-6.474-10.96-.028-6.132.345-12.6l.375-5.329a24.242,24.242,0,0,0-5.679-16.77Q107.9,94.2,93.6,93.615q-16.41-2.188-25.084,4.533a24.652,24.652,0,0,0-9.26,14.9l-.943,5.264q-1.224,6.368-2.755,12.32-1.224,4.626-8.981,9.183-8.9,5.106-12.7,11.934a28.39,28.39,0,0,0-3.238,16.2q.507,9.214-2.43,14.325-2.015,3.477-11.537,11.235-8.167,6.7-10.5,14.457-2.242,7.612,3.65,18.05,1.6,2.757,4.753,8.038a23.5,23.5,0,0,1,2.989,7.759q.685,4.317-1.2,15.98a35.8,35.8,0,0,0,1.557,18.113,44.439,44.439,0,0,0,21.7,24.968q10,5.159,26.987,7.339,16.4,1.658,27.388-1.09a45.609,45.609,0,0,0,27.286-19.338,36.213,36.213,0,0,0,5.957-17.248q1.032-11.762,2.757-15.8a24.03,24.03,0,0,1,4.809-6.863c2.907-2.945,6.084-3.58,7.571-5.124a25.682,25.682,0,0,0,7-18.324q-.363-8.062-6.656-16.429Q135.364,198.3,134.259,194.465Z" fill="url(#k)"/><path d="M173.217,218.225c1.72,1.2,1.161,2,1.161,2s4.08.42,3.919,1.238c-.117,1.654-5.582,2.292-10.05,2.393-4.87.39-8.473,1-9.706,2.617-2.03,2.671-8.57,6.786-11.346,5.2-.466-.266-7.095,3.742-10.408,4.238-4.424.663-4.393-6.565-.329-9.1s20.363-10.248,24.373-11.088C164.118,215.039,172.185,217.506,173.217,218.225Z" fill="#f9ddbf"/><path d="M141.955,223.807c-10.06,1.942-20.1,2.968-28.211-3.11-6.035-4.522-12.431-36.288-12.332-36.282,0,0-2.207-11.741-17.077-7.514-11.738,3.336-3.523,19.447-3.523,19.447s6.143,19.365,8.9,28.786,11.1,18.073,22.325,17.63c13.689-.541,20.678-4.163,32.139-9.455Z" fill="url(#l)"/><path d="M89.8,163.922c-3.935-1.479-6.916-1.036-13.741-2.062a123.607,123.607,0,0,0-16.823.535c-7.13.64-13.84,9.137-15.221,12.283-4.185,9.783-4.315,21-3.948,30.552,1.142,13.537,1.917,21.877,1.234,26.317-1.462,9.5-4.279,24.3-6.483,32.381,3.583,2.09,65.458,4.587,69.162,3.378-3.306-17.264-12.814-29.386-12.814-37.467,1.469-10.285,4.323-13.89,7.514-19.126,2.468-6.441,5.148-14.775,3.415-25.274C101.07,176.559,95.606,165.63,89.8,163.922Z" fill="url(#m)"/><path d="M58.817,122.088a35.3,35.3,0,0,0,5.275,21.394,31.782,31.782,0,0,0,8.5,9.057,28.648,28.648,0,0,0,11.517,4.724l.5.086a28.491,28.491,0,0,0,21.984-5.145,37.41,37.41,0,0,0,14.615-23.716,32.4,32.4,0,0,0-.125-11.93,29.993,29.993,0,0,0-4.037-10.409,26.561,26.561,0,0,0-7.15-7.609A23.9,23.9,0,0,0,99.7,94.2l-8.574-1.484a25.113,25.113,0,0,0-11.359.689,27.383,27.383,0,0,0-13.2,8.79,32.02,32.02,0,0,0-7.224,15.589A42.2,42.2,0,0,0,58.817,122.088Z" fill="#dfbc97"/><path d="M72.56,165.277a85.853,85.853,0,0,0,9.405,0c1.092-.095,7.128-1.4,6.236-2.038-2.519-1.8-1.263-5.79-.392-10.578l3.483-12.625-17.654-2.962L72.32,147.253c-.846,6.633-6.269,13.607-9.988,15C63.827,163.949,67.477,165.077,72.56,165.277Z" fill="url(#n)"/><path d="M95.431,106.884a21.308,21.308,0,0,0-15.776,3.11,18.385,18.385,0,0,0-8.587,12.7l-2.346,13.551a18.156,18.156,0,0,0,3.833,14.772,21.153,21.153,0,0,0,13.8,8.305l.08.014a21.439,21.439,0,0,0,15.868-3.17,18.263,18.263,0,0,0,8.5-12.638l2.346-13.551a18.5,18.5,0,0,0-3.741-14.832A21.6,21.6,0,0,0,95.511,106.9Z" fill="#f9ddbf"/><path d="M93.212,149.9l14.067,2.435,4.41-25.482-14.066-2.435Z" fill="url(#o)"/><path d="M84.236,134.871a1.541,1.541,0,0,0,1.173,1.113,1.663,1.663,0,0,0,1.479-.654,4.667,4.667,0,0,0,.9-2.12,4.975,4.975,0,0,0-.207-2.312,1.458,1.458,0,0,0-2.652-.459,4.656,4.656,0,0,0-.9,2.12A4.962,4.962,0,0,0,84.236,134.871Z" fill="#33312d"/><path d="M105.7,133.125a1.663,1.663,0,0,0-1.479.654,5.34,5.34,0,0,0-.972,2.108,4.663,4.663,0,0,0,.133,2.3,1.662,1.662,0,0,0,1.173,1.113,1.5,1.5,0,0,0,1.405-.667,3.812,3.812,0,0,0,.959-2.033,3.95,3.95,0,0,0-.059-2.286A1.539,1.539,0,0,0,105.7,133.125Z" fill="#33312d"/><path d="M94.287,144.879q.037-.222,1.454-.811a8.581,8.581,0,0,0,2.236-1.282,3.215,3.215,0,0,0,1.3-1.973,2.764,2.764,0,0,0-.761-2.18A8.534,8.534,0,0,1,96.4,134.17l.076-1.959c-3.56-.046-5.212,6.381-5.393,9.788C91.024,143.708,92.419,144.333,94.287,144.879Z" fill="#f9ddbf"/><path d="M71.893,126.678l-1.535-.265a5.213,5.213,0,0,0-4.036.932,5.459,5.459,0,0,0-1.262,7.583,5.19,5.19,0,0,0,3.5,2.186l1.485.258Z" fill="#f9ddbf"/><rect x="85.641" y="110.115" width="18.265" height="6.12" transform="translate(168.855 240.855) rotate(-170.18)" fill="#bf8f68"/><path d="M102.374,115.177a2.742,2.742,0,0,0-1.852-1.312,2.332,2.332,0,0,0-1.975.644,3.679,3.679,0,0,0-1.11,1.74L100.213,99.8a19.813,19.813,0,0,1,14.852,8.828c7.619,11.492,3.893,24.551,3.768,25.031a9.986,9.986,0,0,1-6.455,1.053q-4.944-.857-7.73-5.93a18.752,18.752,0,0,1-1.891-11.681A4.308,4.308,0,0,0,102.374,115.177Z" fill="#dfbc97"/><g opacity="0.5" style="mix-blend-mode:multiply"><path d="M88.86,150.066a3.619,3.619,0,0,1-2.195.931,5.168,5.168,0,0,1-2.355-.313,4.846,4.846,0,0,1-1.99-1.362,3.338,3.338,0,0,1-.9-2.25.487.487,0,0,1,.783-.373l.04.03a11.313,11.313,0,0,0,1.482.96,15.907,15.907,0,0,0,1.472.662c.5.2,1.028.361,1.571.517a16.948,16.948,0,0,0,1.767.368l.059.009a.481.481,0,0,1,.4.549A.476.476,0,0,1,88.86,150.066Z" fill="#bf8f68"/></g><path d="M78.664,101.675c10.49-5.863,21.783-2.76,21.783-2.76l-3,17.341a4.523,4.523,0,0,0-.905-2.094,3.128,3.128,0,0,0-2.068-1.344,3.442,3.442,0,0,0-3.755,2.2,16.962,16.962,0,0,1-6.674,10.2,14.44,14.44,0,0,1-11.271,2.641,14.284,14.284,0,0,1-6.752-3.089C66.072,123.884,67.108,108.134,78.664,101.675Z" fill="#dfbc97"/><path d="M97.442,116.243l11.047,1.912s3.451-19.681,3.435-19.735a27.306,27.306,0,0,0-10.784-3.927Z" fill="url(#p)"/><path d="M135.663,233.151c6.285.508,8.621.579,12.91,1.538,6.329,1.414,17.2,4.382,17.637,2.85.312-.712-3.6-3.088-3.6-3.088s3.438,1.238,3.682.4c.26-.9-5.988-4.645-7.641-6.568,2.126.181,7.885.711,7.893-.787,0-1.085-7.543-1.788-12.524-3.066-14.425-1.339-18.2-.76-22.566-.17s-6.446,7.139-2.076,8.4C131.254,233.2,133.613,233.039,135.663,233.151Z" fill="#f9ddbf"/><path d="M74.228,217.966c-4.5-3.364-6.253-18.189-6.812-25.519.071-.553-.919-15.491-12.652-16.05S41.2,189.451,41.2,189.451s.711,22.425,3.784,31.923c3.022,9.34,8.135,18.3,25.856,20.64,24.149,3.184,61.4-8.615,61.4-8.615l.7-9.557S92.006,231.248,74.228,217.966Z" fill="url(#q)"/><rect x="-8.597" y="57.5" width="289.667" height="190.411" fill="none"/><path d="M137.264,243.5h71.56l14.066-40.809a2.406,2.406,0,0,0-2.275-3.191H154.664a3.132,3.132,0,0,0-2.962,2.112Z" fill="#505050"/><rect x="109.5" y="242.5" width="101" height="6" rx="2.739" transform="translate(320 491) rotate(-180)" fill="#737373"/><polygon points="440.538 223.121 439.406 226.404 444.307 226.404 445.439 223.121 440.538 223.121" fill="#fff"/><polygon points="439.288 223.121 434.85 223.121 433.717 226.404 438.156 226.404 439.288 223.121" fill="#fff"/><polygon points="440.939 221.96 445.839 221.96 446.97 218.676 442.071 218.676 440.939 221.96" fill="#fff"/><polygon points="439.689 221.96 440.821 218.676 436.382 218.676 435.251 221.96 439.689 221.96" fill="#fff"/><path d="M457.5,242.5h117a0,0,0,0,1,0,0v1.348a5.652,5.652,0,0,1-5.652,5.652H457.5a0,0,0,0,1,0,0v-7A0,0,0,0,1,457.5,242.5Z" fill="#c2c2c2"/><path d="M349.174,124.762c2.1,13.094,11.44,23.019,22.682,25.589l.009,0c.125.023.251.055.374.07a25.434,25.434,0,0,0,9.372.241,24.788,24.788,0,0,0,2.815-.617,26.849,26.849,0,0,0,3.46-1.24,25.47,25.47,0,0,0,4.558-2.583c8.509-6.038,13.464-17.076,12.075-28.892-.06-.484-.128-.957-.2-1.429a32.93,32.93,0,0,0-6.285-14.784c-.031-.029-.054-.069-.087-.107-.2-.262-.411-.513-.616-.766-.021-.022-.033-.046-.054-.069a1.162,1.162,0,0,0-.106-.121A29.676,29.676,0,0,0,393.33,96.2a.371.371,0,0,0-.06-.051,26.255,26.255,0,0,0-40.655,7.84,30.962,30.962,0,0,0-2.73,6.8c-.121.435-.224.867-.327,1.307a32.965,32.965,0,0,0-.781,5.9q-.046.76-.038,1.537c.01,1.141.074,2.289.192,3.455,0,0,0,.025.008.1C349.011,123.646,349.083,124.2,349.174,124.762Z" fill="#3a312e"/><path d="M337.559,210.49c18.3,16.033,48.557,15.083,63.82,4.521,13.186-9.124,21.906-22.089,14.857-44.529-1.981-6.309-7.6-18.174-10-28.516a71.886,71.886,0,0,1-1.758-19.4l-55.772-3.244a87.629,87.629,0,0,1-4.927,19.88c-4.58,12.127-12.689,25.985-14.64,31.027C322.082,188.484,330.009,203.874,337.559,210.49Z" fill="#3a312e"/><path d="M362.29,153.574l15.863-.919.112-16.02s-11.559-2.187-15.8-2.436C365.189,143.561,362.29,153.574,362.29,153.574Z" fill="#bf8f68"/><ellipse cx="393.661" cy="135.141" rx="3.298" ry="3.082" transform="translate(114.609 443.949) rotate(-66.845)" fill="#f8c954"/><path d="M362.29,153.574l15.863-.919.112-16.02s-11.559-2.187-15.8-2.436C365.189,143.561,362.29,153.574,362.29,153.574Z" fill="url(#r)"/><path d="M361.073,120.454c-1.192,12.3,7.848,23.2,16.7,23.675s16.991-9.1,18.183-21.4-5.126-21.526-13.976-22S362.265,108.154,361.073,120.454Z" fill="#bf8f68"/><ellipse cx="375.406" cy="121.864" rx="2.579" ry="1.514" transform="translate(215.041 482.507) rotate(-84.011)" fill="#3a312e"/><path d="M382.28,111.754l-.25,6.6a10.534,10.534,0,0,0,2.683,7.134,2.833,2.833,0,0,1-.124,3.524c-.531.545-2.74,1.691-2.891,3.25l-.394,6.1,12.269.755,2.029-27.049Z" fill="url(#s)"/><path d="M383.287,135.517a2.939,2.939,0,0,1-2.068,1.515,5.14,5.14,0,0,1-4.57-1.219,3.455,3.455,0,0,1-.786-1.093,2.031,2.031,0,0,1-.116-1.447.474.474,0,0,1,.758-.206l.2.177A4.023,4.023,0,0,0,378,133.9c.474.173.985.33,1.5.475s1.029.262,1.539.362a5.535,5.535,0,0,0,1.6.077l.126-.015a.514.514,0,0,1,.533.718Z" fill="#9b643d"/><path d="M389.572,99.253a18.673,18.673,0,0,1-11.821,11.387c-13.718,4.737-15.921,10.869-16.017,11-10.664,2.419-7.9-8.37,2.178-20.1C374.252,89.5,389.572,99.253,389.572,99.253Z" fill="#3a312e"/><ellipse cx="388.393" cy="122.577" rx="2.582" ry="1.512" transform="matrix(0.133, -0.991, 0.991, 0.133, 215.248, 491.216)" fill="#3a312e"/><path d="M366.251,131.471l-6.212-.336a4.587,4.587,0,0,1-4.323-5.095h0a5.085,5.085,0,0,1,5.26-4.578l6.212.336Z" fill="#bf8f68"/><ellipse cx="360.821" cy="133.634" rx="3.298" ry="3.082" transform="translate(96.069 412.84) rotate(-66.845)" fill="#f8c954"/><path d="M346,177.114a25.719,25.719,0,1,0,51.437,0c0-.228,0-.457-.009-.685a.339.339,0,0,0,0-.065,25.648,25.648,0,0,0-9.918-19.549q-.956-.748-1.985-1.4a25.721,25.721,0,0,0-27.636.022q-1.029.657-1.989,1.407a25.651,25.651,0,0,0-9.883,19.523.45.45,0,0,0,0,.065C346.007,176.657,346,176.886,346,177.114Z" fill="#ffb900"/><path d="M343.086,243.3a28.635,28.635,0,0,0,28.635,28.635c15.815,0,30.612-13.29,30.612-29.1s-14.8-28.165-30.612-28.165A28.636,28.636,0,0,0,343.086,243.3Z" fill="#eaa306"/><path d="M397.44,178.74l1.691,47.65,50.658,8.8v5.671H392.021a7.992,7.992,0,0,1-7.992-7.991l-5.145-54.389Z" fill="#eda605"/><path d="M346.25,231l53.733,7.682L395.225,217.3a85.011,85.011,0,0,1,0-27.358l2.214-13.577H346l2.214,13.577a85.011,85.011,0,0,1,0,27.358Z" fill="url(#t)"/><path d="M357.888,155.434a27.639,27.639,0,0,0,27.636-.022,25.721,25.721,0,0,0-27.636.022Z" fill="#bf8f68"/><path d="M364.349,177.114l-3.243,50.418,50.658,8.8v6.992H354A7.992,7.992,0,0,1,346,235.333V177.114Z" fill="url(#u)"/><path d="M400.361,243.5h65.055l12.78-37.078a2.2,2.2,0,0,0-2.084-2.922H416.194a2.869,2.869,0,0,0-2.713,1.934Z" fill="#737373"/><rect x="389.5" y="243.5" width="78" height="5" rx="2.447" fill="#939393"/></g></g></svg>